<svg xmlns="http://www.w3.org/2000/svg" xmlns:xlink="http://www.w3.org/1999/xlink" width="512" zoomAndPan="magnify" viewBox="0 0 384 383.999986" height="512" preserveAspectRatio="xMidYMid meet" version="1.0"><defs><clipPath id="d25ed20f90"><path d="M 0 119.464844 L 384 119.464844 L 384 271.359375 L 0 271.359375 Z M 0 119.464844 " clip-rule="nonzero"/></clipPath><clipPath id="1c003a02eb"><path d="M 18 119.464844 L 366 119.464844 C 370.773438 119.464844 375.351562 121.363281 378.726562 124.738281 C 382.105469 128.113281 384 132.691406 384 137.464844 L 384 253.359375 C 384 263.300781 375.941406 271.359375 366 271.359375 L 18 271.359375 C 13.226562 271.359375 8.648438 269.464844 5.273438 266.085938 C 1.894531 262.710938 0 258.132812 0 253.359375 L 0 137.464844 C 0 127.527344 8.058594 119.464844 18 119.464844 Z M 18 119.464844 " clip-rule="nonzero"/></clipPath><clipPath id="ea9df292c0"><path d="M 0 0.464844 L 384 0.464844 L 384 152.359375 L 0 152.359375 Z M 0 0.464844 " clip-rule="nonzero"/></clipPath><clipPath id="6fae11549a"><path d="M 18 0.464844 L 366 0.464844 C 370.773438 0.464844 375.351562 2.363281 378.726562 5.738281 C 382.105469 9.113281 384 13.691406 384 18.464844 L 384 134.359375 C 384 144.300781 375.941406 152.359375 366 152.359375 L 18 152.359375 C 13.226562 152.359375 8.648438 150.464844 5.273438 147.085938 C 1.894531 143.710938 0 139.132812 0 134.359375 L 0 18.464844 C 0 8.527344 8.058594 0.464844 18 0.464844 Z M 18 0.464844 " clip-rule="nonzero"/></clipPath><clipPath id="ab0d4ba842"><rect x="0" width="384" y="0" height="153"/></clipPath><clipPath id="0a0111b039"><path d="M 10.539062 184 L 144.457031 184 L 144.457031 254.617188 L 10.539062 254.617188 Z M 10.539062 184 " clip-rule="nonzero"/></clipPath><clipPath id="3c9908a0a8"><path d="M 10.707031 252.738281 C 10.707031 252.738281 120.375 260.9375 132.964844 239.824219 C 144.144531 221.089844 144.164062 221.089844 144.164062 221.089844 L 112.027344 203.640625 L 123.007812 237.257812 C 123.007812 237.257812 118.492188 236.570312 115.730469 234.128906 C 112.96875 231.6875 83.527344 188.417969 83.527344 188.417969 L 75.988281 184.070312 Z M 10.707031 252.738281 " clip-rule="nonzero"/></clipPath><clipPath id="b4a1767888"><path d="M 0.558594 0 L 134.238281 0 L 134.238281 70.617188 L 0.558594 70.617188 Z M 0.558594 0 " clip-rule="nonzero"/></clipPath><clipPath id="dc1968ab37"><path d="M 0.707031 68.738281 C 0.707031 68.738281 110.375 76.9375 122.964844 55.824219 C 134.144531 37.089844 134.164062 37.089844 134.164062 37.089844 L 102.027344 19.640625 L 113.007812 53.257812 C 113.007812 53.257812 108.492188 52.570312 105.730469 50.128906 C 102.96875 47.6875 73.527344 4.417969 73.527344 4.417969 L 65.988281 0.0703125 Z M 0.707031 68.738281 " clip-rule="nonzero"/></clipPath><clipPath id="3a9c99ea1f"><rect x="0" width="135" y="0" height="71"/></clipPath><clipPath id="e3aa304353"><path d="M 83.078125 123.179688 L 182.898438 123.179688 L 182.898438 211 L 83.078125 211 Z M 83.078125 123.179688 " clip-rule="nonzero"/></clipPath><clipPath id="2761f91e4f"><path d="M 120.65625 189.59375 L 97.785156 177.625 C 140.546875 172.015625 145.726562 176.019531 145.726562 176.019531 L 151.914062 180.449219 Z M 83.226562 176.039062 L 148.382812 210.8125 L 182.875 125.617188 C 182.875 125.617188 134.527344 107.050781 83.226562 176.019531 " clip-rule="nonzero"/></clipPath><clipPath id="e68349190b"><path d="M 0.078125 0.179688 L 99.878906 0.179688 L 99.878906 87.960938 L 0.078125 87.960938 Z M 0.078125 0.179688 " clip-rule="nonzero"/></clipPath><clipPath id="df24d6fcf0"><path d="M 37.65625 66.59375 L 14.785156 54.625 C 57.546875 49.015625 62.726562 53.019531 62.726562 53.019531 L 68.914062 57.449219 Z M 0.226562 53.039062 L 65.382812 87.8125 L 99.875 2.617188 C 99.875 2.617188 51.527344 -15.949219 0.226562 53.019531 " clip-rule="nonzero"/></clipPath><clipPath id="26b80bba79"><rect x="0" width="100" y="0" height="88"/></clipPath><clipPath id="d3b0f04185"><path d="M 198.398438 123.179688 L 373.855469 123.179688 L 373.855469 222 L 198.398438 222 Z M 198.398438 123.179688 " clip-rule="nonzero"/></clipPath><clipPath id="0ec95c7344"><path d="M 373.289062 123.476562 C 371 131.375 368.835938 138.890625 366.632812 146.472656 C 359.886719 169.660156 352.863281 193.578125 345.796875 218.328125 C 344.984375 221.175781 343.871094 222.074219 340.851562 221.945312 C 333.1875 221.605469 325.519531 221.667969 317.535156 221.5625 C 324.515625 198.972656 331.171875 177.367188 337.660156 156.363281 C 337.46875 156.296875 337.277344 156.234375 337.082031 156.148438 C 332.566406 163.535156 328.003906 170.988281 323.421875 178.523438 C 315.15625 192.054688 306.742188 205.824219 298.136719 219.804688 C 297.75 220.449219 296.851562 221.21875 296.230469 221.21875 C 288.542969 221.21875 280.898438 221.089844 272.976562 220.984375 C 274.132812 198.457031 275.246094 176.875 276.339844 155.933594 C 276.210938 155.890625 276.101562 155.871094 275.972656 155.828125 C 275.71875 156.40625 275.417969 156.984375 275.203125 157.582031 C 268.265625 177.347656 261.136719 197.664062 253.8125 218.519531 C 253.386719 219.761719 253.0625 220.769531 251.328125 220.746094 C 233.664062 220.46875 216.085938 220.277344 198.570312 219.460938 C 201.078125 219.164062 203.601562 218.800781 206.109375 218.5625 C 223.152344 216.9375 237.261719 205.953125 242.359375 190.042969 C 243.449219 186.617188 244.113281 182.699219 243.449219 179.421875 C 242.144531 172.957031 241.09375 171.328125 230.625 167.324219 C 232.894531 166.253906 235.035156 165.25 237.15625 164.265625 C 247.410156 159.425781 253.128906 151.523438 255.121094 141.417969 C 256.660156 133.601562 251.394531 126.535156 242.914062 124.460938 C 242.273438 124.308594 241.628906 124.117188 241.074219 123.644531 C 261.136719 123.644531 281.304688 123.644531 301.753906 123.644531 C 300.875 140.691406 299.957031 158.097656 299.011719 176.210938 C 301.304688 172.765625 303.550781 169.550781 305.609375 166.277344 C 313.703125 153.472656 321.835938 140.96875 329.332031 128.421875 C 331.664062 124.503906 334.191406 123.21875 338.882812 123.390625 C 349.136719 123.773438 359.457031 123.496094 369.800781 123.496094 C 370.785156 123.496094 371.792969 123.496094 373.269531 123.496094 " clip-rule="nonzero"/></clipPath><clipPath id="ad3fa55ad6"><path d="M 0.480469 0.179688 L 175.441406 0.179688 L 175.441406 99 L 0.480469 99 Z M 0.480469 0.179688 " clip-rule="nonzero"/></clipPath><clipPath id="357ee7ad70"><path d="M 175.289062 0.476562 C 173 8.375 170.835938 15.890625 168.632812 23.472656 C 161.886719 46.660156 154.863281 70.578125 147.796875 95.328125 C 146.984375 98.175781 145.871094 99.074219 142.851562 98.945312 C 135.1875 98.605469 127.519531 98.667969 119.535156 98.5625 C 126.515625 75.972656 133.171875 54.367188 139.660156 33.363281 C 139.46875 33.296875 139.277344 33.234375 139.082031 33.148438 C 134.566406 40.535156 130.003906 47.988281 125.421875 55.523438 C 117.15625 69.054688 108.742188 82.824219 100.136719 96.804688 C 99.75 97.449219 98.851562 98.21875 98.230469 98.21875 C 90.542969 98.21875 82.898438 98.089844 74.976562 97.984375 C 76.132812 75.457031 77.246094 53.875 78.339844 32.933594 C 78.210938 32.890625 78.101562 32.871094 77.972656 32.828125 C 77.71875 33.40625 77.417969 33.984375 77.203125 34.582031 C 70.265625 54.347656 63.136719 74.664062 55.8125 95.519531 C 55.386719 96.761719 55.0625 97.769531 53.328125 97.746094 C 35.664062 97.46875 18.085938 97.277344 0.570312 96.460938 C 3.078125 96.164062 5.601562 95.800781 8.109375 95.5625 C 25.152344 93.9375 39.261719 82.953125 44.359375 67.042969 C 45.449219 63.617188 46.113281 59.699219 45.449219 56.421875 C 44.144531 49.957031 43.09375 48.328125 32.625 44.324219 C 34.894531 43.253906 37.035156 42.25 39.15625 41.265625 C 49.410156 36.425781 55.128906 28.523438 57.121094 18.417969 C 58.660156 10.601562 53.394531 3.535156 44.914062 1.460938 C 44.273438 1.308594 43.628906 1.117188 43.074219 0.644531 C 63.136719 0.644531 83.304688 0.644531 103.753906 0.644531 C 102.875 17.691406 101.957031 35.097656 101.011719 53.210938 C 103.304688 49.765625 105.550781 46.550781 107.609375 43.277344 C 115.703125 30.472656 123.835938 17.96875 131.332031 5.421875 C 133.664062 1.503906 136.191406 0.21875 140.882812 0.390625 C 151.136719 0.773438 161.457031 0.496094 171.800781 0.496094 C 172.785156 0.496094 173.792969 0.496094 175.269531 0.496094 " clip-rule="nonzero"/></clipPath><clipPath id="5255b3153f"><rect x="0" width="176" y="0" height="99"/></clipPath><clipPath id="1fa8b1c09d"><path d="M 177.316406 178 L 213.277344 178 L 213.277344 198.820312 L 177.316406 198.820312 Z M 177.316406 178 " clip-rule="nonzero"/></clipPath><clipPath id="28147fa037"><path d="M 177.332031 198.308594 C 180.285156 191.050781 182.960938 184.519531 185.46875 178.351562 C 192.855469 178.394531 200.175781 177.96875 207.265625 178.671875 C 212.808594 179.210938 214.351562 183.535156 211.847656 188.824219 C 209.554688 193.660156 205.636719 197.003906 200.476562 197.472656 C 192.917969 198.179688 185.382812 198.074219 177.332031 198.308594 " clip-rule="nonzero"/></clipPath><clipPath id="59e0eca296"><path d="M 0.316406 0 L 36.277344 0 L 36.277344 20.480469 L 0.316406 20.480469 Z M 0.316406 0 " clip-rule="nonzero"/></clipPath><clipPath id="ee7484133e"><path d="M 0.332031 20.308594 C 3.285156 13.050781 5.960938 6.519531 8.46875 0.351562 C 15.855469 0.394531 23.175781 -0.03125 30.265625 0.671875 C 35.808594 1.210938 37.351562 5.535156 34.847656 10.824219 C 32.554688 15.660156 28.636719 19.003906 23.476562 19.472656 C 15.917969 20.179688 8.382812 20.074219 0.332031 20.308594 " clip-rule="nonzero"/></clipPath><clipPath id="420fb7e985"><rect x="0" width="37" y="0" height="21"/></clipPath><clipPath id="c1b8bc17f6"><path d="M 193 141.78125 L 223.816406 141.78125 L 223.816406 159.757812 L 193 159.757812 Z M 193 141.78125 " clip-rule="nonzero"/></clipPath><clipPath id="f01c90666b"><path d="M 193.089844 159.46875 C 195.316406 153.964844 197.5 148.527344 199.769531 143.152344 C 199.984375 142.636719 200.992188 141.996094 201.546875 141.996094 C 206.792969 141.972656 212.058594 141.867188 217.261719 142.253906 C 222.894531 142.660156 224.652344 145.914062 222.507812 151.160156 C 220.605469 155.828125 217.027344 159.0625 211.996094 159.445312 C 205.808594 159.917969 199.640625 159.511719 193.089844 159.46875 " clip-rule="nonzero"/></clipPath><clipPath id="b8b5e67894"><path d="M 0 0.839844 L 30.816406 0.839844 L 30.816406 18.757812 L 0 18.757812 Z M 0 0.839844 " clip-rule="nonzero"/></clipPath><clipPath id="b1bf0c6afa"><path d="M 0.0898438 18.46875 C 2.316406 12.964844 4.5 7.527344 6.769531 2.152344 C 6.984375 1.636719 7.992188 0.996094 8.546875 0.996094 C 13.792969 0.972656 19.058594 0.867188 24.261719 1.253906 C 29.894531 1.660156 31.652344 4.914062 29.507812 10.160156 C 27.605469 14.828125 24.027344 18.0625 18.996094 18.445312 C 12.808594 18.917969 6.640625 18.511719 0.0898438 18.46875 " clip-rule="nonzero"/></clipPath><clipPath id="343a07ce65"><rect x="0" width="31" y="0" height="19"/></clipPath><clipPath id="fd01849aa1"><path d="M 155 220 L 180 220 L 180 252 L 155 252 Z M 155 220 " clip-rule="nonzero"/></clipPath><clipPath id="cf24923acc"><path d="M 173.347656 241.839844 L 169.878906 229.054688 L 163.96875 241.753906 Z M 170.714844 220 L 179.964844 251.625 L 175.960938 251.601562 L 174.269531 245.285156 L 162.40625 245.199219 L 159.496094 251.472656 L 155.554688 251.453125 Z M 170.714844 220 " clip-rule="nonzero"/></clipPath><clipPath id="1e93f56e07"><path d="M 0.519531 0 L 25 0 L 25 31.761719 L 0.519531 31.761719 Z M 0.519531 0 " clip-rule="nonzero"/></clipPath><clipPath id="0dff40dc31"><path d="M 18.347656 21.839844 L 14.878906 9.054688 L 8.96875 21.753906 Z M 15.714844 0 L 24.964844 31.625 L 20.960938 31.601562 L 19.269531 25.285156 L 7.40625 25.199219 L 4.496094 31.472656 L 0.554688 31.453125 Z M 15.714844 0 " clip-rule="nonzero"/></clipPath><clipPath id="d7e454ead1"><rect x="0" width="25" y="0" height="32"/></clipPath><clipPath id="23d599192d"><path d="M 182.277344 230 L 202.117188 230 L 202.117188 252.136719 L 182.277344 252.136719 Z M 182.277344 230 " clip-rule="nonzero"/></clipPath><clipPath id="7ddd7c7350"><path d="M 189.042969 235.5 C 187.714844 236.679688 186.792969 238.132812 186.410156 239.847656 L 198.722656 239.953125 C 198.722656 239.824219 198.765625 239.503906 198.785156 239.375 C 198.828125 237.875 198.355469 236.550781 197.414062 235.4375 C 196.472656 234.28125 195.253906 233.679688 193.710938 233.679688 C 191.976562 233.660156 190.433594 234.28125 189.042969 235.5 M 200.175781 233.144531 C 201.527344 234.984375 202.148438 237.0625 202.0625 239.441406 C 202.019531 240.894531 201.675781 242.246094 201.546875 242.714844 L 201.417969 243.058594 L 186.132812 242.929688 C 186.109375 244.535156 186.644531 245.925781 187.757812 247.105469 C 188.871094 248.238281 190.371094 248.796875 192.210938 248.816406 C 194.375 248.839844 196.988281 248.046875 198.164062 247.40625 L 199.085938 246.933594 L 198.613281 250.53125 C 196.792969 251.582031 194.503906 252.09375 191.632812 252.074219 C 188.851562 252.050781 186.644531 251.128906 184.996094 249.375 C 183.347656 247.617188 182.511719 245.308594 182.535156 242.5 C 182.554688 239.074219 183.691406 236.164062 185.960938 233.828125 C 188.230469 231.496094 190.949219 230.296875 194.140625 230.320312 C 196.816406 230.339844 198.808594 231.261719 200.15625 233.101562 " clip-rule="nonzero"/></clipPath><clipPath id="9d92cd4293"><path d="M 0.398438 0.160156 L 20.117188 0.160156 L 20.117188 22.136719 L 0.398438 22.136719 Z M 0.398438 0.160156 " clip-rule="nonzero"/></clipPath><clipPath id="fd8e1a80da"><path d="M 7.042969 5.5 C 5.714844 6.679688 4.792969 8.132812 4.410156 9.847656 L 16.722656 9.953125 C 16.722656 9.824219 16.765625 9.503906 16.785156 9.375 C 16.828125 7.875 16.355469 6.550781 15.414062 5.4375 C 14.472656 4.28125 13.253906 3.679688 11.710938 3.679688 C 9.976562 3.660156 8.433594 4.28125 7.042969 5.5 M 18.175781 3.144531 C 19.527344 4.984375 20.148438 7.0625 20.0625 9.441406 C 20.019531 10.894531 19.675781 12.246094 19.546875 12.714844 L 19.417969 13.058594 L 4.132812 12.929688 C 4.109375 14.535156 4.644531 15.925781 5.757812 17.105469 C 6.871094 18.238281 8.371094 18.796875 10.210938 18.816406 C 12.375 18.839844 14.988281 18.046875 16.164062 17.40625 L 17.085938 16.933594 L 16.613281 20.53125 C 14.792969 21.582031 12.503906 22.09375 9.632812 22.074219 C 6.851562 22.050781 4.644531 21.128906 2.996094 19.375 C 1.347656 17.617188 0.511719 15.308594 0.535156 12.5 C 0.554688 9.074219 1.691406 6.164062 3.960938 3.828125 C 6.230469 1.496094 8.949219 0.296875 12.140625 0.320312 C 14.816406 0.339844 16.808594 1.261719 18.15625 3.101562 " clip-rule="nonzero"/></clipPath><clipPath id="b9d15caf55"><rect x="0" width="21" y="0" height="23"/></clipPath><clipPath id="e6edeaadac"><path d="M 204.597656 230.4375 L 219.476562 230.4375 L 219.476562 252 L 204.597656 252 Z M 204.597656 230.4375 " clip-rule="nonzero"/></clipPath><clipPath id="d91b345e52"><path d="M 219.253906 230.726562 L 218.65625 234.238281 C 218.375 234.109375 217.863281 234.042969 217.136719 234.042969 C 215.230469 234.023438 213.625 234.730469 212.382812 236.140625 C 211.140625 237.492188 210.410156 239.03125 210.175781 240.703125 L 208.613281 251.835938 L 204.867188 251.816406 L 207.714844 230.941406 L 211.117188 230.960938 L 210.988281 234.257812 C 211.117188 234.085938 211.226562 233.808594 212.101562 232.972656 C 213.257812 231.902344 215.101562 230.574219 217.777344 230.617188 Z M 219.253906 230.726562 " clip-rule="nonzero"/></clipPath><clipPath id="6456938dcb"><path d="M 0.71875 0.4375 L 15.359375 0.4375 L 15.359375 22 L 0.71875 22 Z M 0.71875 0.4375 " clip-rule="nonzero"/></clipPath><clipPath id="33126a8154"><path d="M 15.253906 0.726562 L 14.65625 4.238281 C 14.375 4.109375 13.863281 4.042969 13.136719 4.042969 C 11.230469 4.023438 9.625 4.730469 8.382812 6.140625 C 7.140625 7.492188 6.410156 9.03125 6.175781 10.703125 L 4.613281 21.835938 L 0.867188 21.816406 L 3.714844 0.941406 L 7.117188 0.960938 L 6.988281 4.257812 C 7.117188 4.085938 7.226562 3.808594 8.101562 2.972656 C 9.257812 1.902344 11.101562 0.574219 13.777344 0.617188 Z M 15.253906 0.726562 " clip-rule="nonzero"/></clipPath><clipPath id="7c11829a01"><rect x="0" width="16" y="0" height="22"/></clipPath><clipPath id="0fdbefd9f4"><path d="M 218.238281 230.4375 L 239.9375 230.4375 L 239.9375 252.757812 L 218.238281 252.757812 Z M 218.238281 230.4375 " clip-rule="nonzero"/></clipPath><clipPath id="1c1174a744"><path d="M 233.6875 246.785156 C 235.335938 245.15625 236.234375 243.207031 236.382812 240.894531 C 236.511719 239.011719 236.042969 237.425781 234.90625 236.140625 C 233.773438 234.816406 232.292969 234.128906 230.472656 234.109375 C 228.3125 234.085938 226.449219 234.921875 224.800781 236.59375 C 223.152344 238.21875 222.296875 240.1875 222.167969 242.457031 C 222.058594 244.320312 222.574219 245.886719 223.664062 247.191406 C 224.757812 248.496094 226.214844 249.140625 228.035156 249.160156 C 230.152344 249.183594 232.039062 248.367188 233.664062 246.804688 M 235.871094 249.097656 C 233.515625 251.34375 230.710938 252.4375 227.5 252.414062 C 224.820312 252.394531 222.660156 251.496094 220.988281 249.675781 C 219.339844 247.8125 218.570312 245.519531 218.71875 242.738281 C 218.890625 239.375 220.175781 236.527344 222.53125 234.195312 C 224.886719 231.859375 227.777344 230.726562 231.03125 230.746094 C 233.792969 230.769531 235.976562 231.730469 237.648438 233.617188 C 239.316406 235.5 240.046875 237.835938 239.832031 240.597656 C 239.574219 244.042969 238.246094 246.828125 235.871094 249.097656 " clip-rule="nonzero"/></clipPath><clipPath id="f4693c4663"><path d="M 0.398438 0.640625 L 21.9375 0.640625 L 21.9375 22.480469 L 0.398438 22.480469 Z M 0.398438 0.640625 " clip-rule="nonzero"/></clipPath><clipPath id="eb9a9e430e"><path d="M 15.6875 16.785156 C 17.335938 15.15625 18.234375 13.207031 18.382812 10.894531 C 18.511719 9.011719 18.042969 7.425781 16.90625 6.140625 C 15.773438 4.816406 14.292969 4.128906 12.472656 4.109375 C 10.3125 4.085938 8.449219 4.921875 6.800781 6.59375 C 5.152344 8.21875 4.296875 10.1875 4.167969 12.457031 C 4.058594 14.320312 4.574219 15.886719 5.664062 17.191406 C 6.757812 18.496094 8.214844 19.140625 10.035156 19.160156 C 12.152344 19.183594 14.039062 18.367188 15.664062 16.804688 M 17.871094 19.097656 C 15.515625 21.34375 12.710938 22.4375 9.5 22.414062 C 6.820312 22.394531 4.660156 21.496094 2.988281 19.675781 C 1.339844 17.8125 0.570312 15.519531 0.71875 12.738281 C 0.890625 9.375 2.175781 6.527344 4.53125 4.195312 C 6.886719 1.859375 9.777344 0.726562 13.03125 0.746094 C 15.792969 0.769531 17.976562 1.730469 19.648438 3.617188 C 21.316406 5.5 22.046875 7.835938 21.832031 10.597656 C 21.574219 14.042969 20.246094 16.828125 17.871094 19.097656 " clip-rule="nonzero"/></clipPath><clipPath id="75497dd52e"><rect x="0" width="22" y="0" height="23"/></clipPath><clipPath id="240b71cc55"><path d="M 241.796875 230.4375 L 259 230.4375 L 259 252.757812 L 241.796875 252.757812 Z M 241.796875 230.4375 " clip-rule="nonzero"/></clipPath><clipPath id="0d4e583f2f"><path d="M 258.78125 232.097656 L 258.050781 235.648438 C 256.511719 234.707031 254.605469 234.238281 252.378906 234.214844 C 250.324219 234.195312 248.503906 235.285156 248.351562 237.019531 C 248.246094 238.261719 249.765625 239.097656 251.671875 239.824219 C 254.457031 240.851562 258.011719 242.332031 257.644531 246.011719 C 257.472656 247.855469 256.574219 249.394531 254.925781 250.703125 C 253.320312 251.964844 251.117188 252.585938 248.289062 252.566406 C 246.105469 252.542969 243.726562 251.816406 242.742188 251.238281 L 241.992188 250.765625 L 242.65625 247.042969 C 242.851562 247.210938 243.085938 247.425781 243.429688 247.683594 C 243.792969 247.898438 244.457031 248.238281 245.546875 248.648438 C 246.640625 249.054688 247.730469 249.269531 248.84375 249.269531 C 249.960938 249.269531 251.03125 249.03125 252.058594 248.5625 C 253.128906 248.089844 253.707031 247.320312 253.792969 246.335938 C 254.113281 242.738281 244.007812 243.488281 244.5 237.363281 C 244.648438 235.328125 245.546875 233.746094 247.195312 232.609375 C 248.867188 231.410156 250.859375 230.855469 253.171875 230.875 C 255.417969 230.898438 257.472656 231.410156 258.246094 231.816406 Z M 258.78125 232.097656 " clip-rule="nonzero"/></clipPath><clipPath id="1a6046cdb6"><path d="M 0.921875 0.640625 L 17.960938 0.640625 L 17.960938 22.71875 L 0.921875 22.71875 Z M 0.921875 0.640625 " clip-rule="nonzero"/></clipPath><clipPath id="4527724c11"><path d="M 17.78125 2.097656 L 17.050781 5.648438 C 15.511719 4.707031 13.605469 4.238281 11.378906 4.214844 C 9.324219 4.195312 7.503906 5.285156 7.351562 7.019531 C 7.246094 8.261719 8.765625 9.097656 10.671875 9.824219 C 13.457031 10.851562 17.011719 12.332031 16.644531 16.011719 C 16.472656 17.855469 15.574219 19.394531 13.925781 20.703125 C 12.320312 21.964844 10.117188 22.585938 7.289062 22.566406 C 5.105469 22.542969 2.726562 21.816406 1.742188 21.238281 L 0.992188 20.765625 L 1.65625 17.042969 C 1.851562 17.210938 2.085938 17.425781 2.429688 17.683594 C 2.792969 17.898438 3.457031 18.238281 4.546875 18.648438 C 5.640625 19.054688 6.730469 19.269531 7.84375 19.269531 C 8.960938 19.269531 10.03125 19.03125 11.058594 18.5625 C 12.128906 18.089844 12.707031 17.320312 12.792969 16.335938 C 13.113281 12.738281 3.007812 13.488281 3.5 7.363281 C 3.648438 5.328125 4.546875 3.746094 6.195312 2.609375 C 7.867188 1.410156 9.859375 0.855469 12.171875 0.875 C 14.417969 0.898438 16.472656 1.410156 17.246094 1.816406 Z M 17.78125 2.097656 " clip-rule="nonzero"/></clipPath><clipPath id="03b8a8d17e"><rect x="0" width="18" y="0" height="23"/></clipPath><clipPath id="60891bad5b"><path d="M 259.15625 231.058594 L 283 231.058594 L 283 260.816406 L 259.15625 260.816406 Z M 259.15625 231.058594 " clip-rule="nonzero"/></clipPath><clipPath id="dc8cc5833a"><path d="M 276.359375 247.082031 C 277.921875 245.5 278.820312 243.53125 279.101562 241.132812 C 279.550781 237.40625 277.664062 234.535156 274.152344 234.492188 C 271.800781 234.472656 269.378906 235.863281 268.414062 237.042969 L 267.667969 237.875 L 265.976562 246.054688 C 265.976562 246.097656 267.238281 249.417969 270.941406 249.4375 C 273.039062 249.460938 274.882812 248.648438 276.382812 247.082031 M 259.378906 260.636719 L 265.246094 231.453125 L 268.738281 231.476562 L 268.371094 234.128906 C 268.523438 233.957031 268.671875 233.789062 269.570312 233.082031 C 270.855469 232.160156 272.828125 231.066406 275.480469 231.089844 C 277.964844 231.109375 279.871094 232.074219 281.199219 233.9375 C 282.527344 235.757812 283.039062 238.089844 282.675781 240.9375 C 282.269531 244.277344 280.878906 247.105469 278.566406 249.375 C 276.253906 251.644531 273.726562 252.738281 270.835938 252.714844 C 267.472656 252.695312 265.804688 250.894531 265.355469 250.125 L 265.183594 249.824219 L 262.976562 260.660156 Z M 259.378906 260.636719 " clip-rule="nonzero"/></clipPath><clipPath id="d3af4b84e4"><path d="M 0.199219 0.0585938 L 24 0.0585938 L 24 29.816406 L 0.199219 29.816406 Z M 0.199219 0.0585938 " clip-rule="nonzero"/></clipPath><clipPath id="4ff0c12e39"><path d="M 17.359375 16.082031 C 18.921875 14.5 19.820312 12.53125 20.101562 10.132812 C 20.550781 6.40625 18.664062 3.535156 15.152344 3.492188 C 12.800781 3.472656 10.378906 4.863281 9.414062 6.042969 L 8.667969 6.875 L 6.976562 15.054688 C 6.976562 15.097656 8.238281 18.417969 11.941406 18.4375 C 14.039062 18.460938 15.882812 17.648438 17.382812 16.082031 M 0.378906 29.636719 L 6.246094 0.453125 L 9.738281 0.476562 L 9.371094 3.128906 C 9.523438 2.957031 9.671875 2.789062 10.570312 2.082031 C 11.855469 1.160156 13.828125 0.0664062 16.480469 0.0898438 C 18.964844 0.109375 20.871094 1.074219 22.199219 2.9375 C 23.527344 4.757812 24.039062 7.089844 23.675781 9.9375 C 23.269531 13.277344 21.878906 16.105469 19.566406 18.375 C 17.253906 20.644531 14.726562 21.738281 11.835938 21.714844 C 8.472656 21.695312 6.804688 19.894531 6.355469 19.125 L 6.183594 18.824219 L 3.976562 29.660156 Z M 0.378906 29.636719 " clip-rule="nonzero"/></clipPath><clipPath id="d0b3021be9"><rect x="0" width="24" y="0" height="30"/></clipPath><clipPath id="171be5d65a"><path d="M 285.195312 231.058594 L 308.753906 231.058594 L 308.753906 253 L 285.195312 253 Z M 285.195312 231.058594 " clip-rule="nonzero"/></clipPath><clipPath id="cda95cdfd7"><path d="M 292.226562 237.171875 C 290.554688 238.777344 289.527344 240.746094 289.226562 243.035156 C 288.972656 244.898438 289.355469 246.441406 290.296875 247.703125 C 291.242188 248.96875 292.589844 249.609375 294.367188 249.609375 C 296.65625 249.632812 299.078125 248.28125 300.082031 247.125 L 300.855469 246.3125 L 302.886719 238.175781 C 302.886719 238.132812 301.773438 234.730469 298.007812 234.707031 C 295.867188 234.6875 293.960938 235.523438 292.226562 237.171875 M 308.199219 231.816406 L 302.972656 252.523438 L 299.570312 252.5 L 300.019531 249.953125 C 299.871094 250.125 299.71875 250.296875 298.757812 250.960938 C 297.558594 251.835938 295.523438 252.886719 292.976562 252.863281 C 290.554688 252.84375 288.628906 251.945312 287.214844 250.144531 C 285.84375 248.347656 285.308594 246.097656 285.652344 243.378906 C 286.082031 239.996094 287.535156 237.105469 290.019531 234.792969 C 292.523438 232.417969 295.246094 231.238281 298.136719 231.261719 C 300.703125 231.28125 302.78125 232.589844 303.421875 233.53125 L 303.851562 234.28125 L 304.558594 231.753906 Z M 308.199219 231.816406 " clip-rule="nonzero"/></clipPath><clipPath id="01d9d6a086"><path d="M 0.195312 0.121094 L 23.398438 0.121094 L 23.398438 21.960938 L 0.195312 21.960938 Z M 0.195312 0.121094 " clip-rule="nonzero"/></clipPath><clipPath id="90b2f75673"><path d="M 7.226562 6.171875 C 5.554688 7.777344 4.527344 9.746094 4.226562 12.035156 C 3.972656 13.898438 4.355469 15.441406 5.296875 16.703125 C 6.242188 17.96875 7.589844 18.609375 9.367188 18.609375 C 11.65625 18.632812 14.078125 17.28125 15.082031 16.125 L 15.855469 15.3125 L 17.886719 7.175781 C 17.886719 7.132812 16.773438 3.730469 13.007812 3.707031 C 10.867188 3.6875 8.960938 4.523438 7.226562 6.171875 M 23.199219 0.816406 L 17.972656 21.523438 L 14.570312 21.5 L 15.019531 18.953125 C 14.871094 19.125 14.71875 19.296875 13.757812 19.960938 C 12.558594 20.835938 10.523438 21.886719 7.976562 21.863281 C 5.554688 21.84375 3.628906 20.945312 2.214844 19.144531 C 0.84375 17.347656 0.308594 15.097656 0.652344 12.378906 C 1.082031 8.996094 2.535156 6.105469 5.019531 3.792969 C 7.523438 1.417969 10.246094 0.238281 13.136719 0.261719 C 15.703125 0.28125 17.78125 1.589844 18.421875 2.53125 L 18.851562 3.28125 L 19.558594 0.753906 Z M 23.199219 0.816406 " clip-rule="nonzero"/></clipPath><clipPath id="c8734d417f"><rect x="0" width="24" y="0" height="22"/></clipPath><clipPath id="ad4fc413fd"><path d="M 309.375 231.058594 L 327.976562 231.058594 L 327.976562 253.378906 L 309.375 253.378906 Z M 309.375 231.058594 " clip-rule="nonzero"/></clipPath><clipPath id="31ab17e3d5"><path d="M 327.726562 232.480469 L 326.632812 236.3125 C 325.671875 235.371094 324.257812 234.921875 322.332031 234.921875 C 320.296875 234.902344 318.390625 235.734375 316.675781 237.382812 C 314.964844 238.992188 313.9375 240.9375 313.574219 243.25 C 313.273438 245.113281 313.550781 246.65625 314.386719 247.898438 C 315.242188 249.140625 316.527344 249.804688 318.261719 249.804688 C 320.019531 249.824219 322.007812 249.269531 322.910156 248.816406 L 323.570312 248.476562 L 322.628906 251.964844 C 321.386719 252.714844 319.523438 253.078125 317.128906 253.078125 C 314.601562 253.058594 312.652344 252.160156 311.347656 250.359375 C 310.039062 248.5625 309.613281 246.292969 310.039062 243.574219 C 310.574219 240.1875 312.117188 237.320312 314.6875 235.007812 C 317.253906 232.695312 320.125 231.519531 323.207031 231.539062 C 325.179688 231.558594 326.828125 231.925781 327.296875 232.289062 Z M 327.726562 232.480469 " clip-rule="nonzero"/></clipPath><clipPath id="6e61e28403"><path d="M 0.601562 0.359375 L 18.839844 0.359375 L 18.839844 22.199219 L 0.601562 22.199219 Z M 0.601562 0.359375 " clip-rule="nonzero"/></clipPath><clipPath id="293836bc12"><path d="M 18.726562 1.480469 L 17.632812 5.3125 C 16.671875 4.371094 15.257812 3.921875 13.332031 3.921875 C 11.296875 3.902344 9.390625 4.734375 7.675781 6.382812 C 5.964844 7.992188 4.9375 9.9375 4.574219 12.25 C 4.273438 14.113281 4.550781 15.65625 5.386719 16.898438 C 6.242188 18.140625 7.527344 18.804688 9.261719 18.804688 C 11.019531 18.824219 13.007812 18.269531 13.910156 17.816406 L 14.570312 17.476562 L 13.628906 20.964844 C 12.386719 21.714844 10.523438 22.078125 8.128906 22.078125 C 5.601562 22.058594 3.652344 21.160156 2.347656 19.359375 C 1.039062 17.5625 0.613281 15.292969 1.039062 12.574219 C 1.574219 9.1875 3.117188 6.320312 5.6875 4.007812 C 8.253906 1.695312 11.125 0.519531 14.207031 0.539062 C 16.179688 0.558594 17.828125 0.925781 18.296875 1.289062 Z M 18.726562 1.480469 " clip-rule="nonzero"/></clipPath><clipPath id="166ed3298a"><rect x="0" width="19" y="0" height="23"/></clipPath><clipPath id="a35526e20d"><path d="M 328 231.058594 L 349 231.058594 L 349 253.378906 L 328 253.378906 Z M 328 231.058594 " clip-rule="nonzero"/></clipPath><clipPath id="2ed21de234"><path d="M 336.203125 236.761719 C 334.707031 237.941406 333.570312 239.375 332.886719 241.066406 L 344.941406 241.175781 C 344.960938 241.046875 345.070312 240.746094 345.089844 240.617188 C 345.390625 239.140625 345.132812 237.835938 344.40625 236.71875 C 343.675781 235.5625 342.585938 234.984375 341.085938 234.964844 C 339.375 234.945312 337.769531 235.542969 336.203125 236.761719 M 347.511719 234.429688 C 348.515625 236.25 348.773438 238.304688 348.300781 240.660156 C 348.023438 242.09375 347.46875 243.421875 347.230469 243.894531 L 347.039062 244.234375 L 332.074219 244.109375 C 331.773438 245.691406 332.050781 247.082031 332.949219 248.238281 C 333.851562 249.351562 335.21875 249.929688 337.019531 249.929688 C 339.136719 249.953125 341.835938 249.160156 343.097656 248.519531 L 344.085938 248.046875 L 343.015625 251.625 C 341.066406 252.671875 338.710938 253.164062 335.90625 253.144531 C 333.1875 253.121094 331.195312 252.222656 329.867188 250.46875 C 328.539062 248.710938 328.132812 246.441406 328.625 243.679688 C 329.226562 240.296875 330.832031 237.425781 333.441406 235.113281 C 336.054688 232.800781 338.925781 231.625 342.050781 231.644531 C 344.683594 231.667969 346.460938 232.566406 347.46875 234.386719 " clip-rule="nonzero"/></clipPath><clipPath id="b71ce91c08"><path d="M 0.078125 0.601562 L 20.960938 0.601562 L 20.960938 22.199219 L 0.078125 22.199219 Z M 0.078125 0.601562 " clip-rule="nonzero"/></clipPath><clipPath id="e288f40914"><path d="M 8.203125 5.761719 C 6.707031 6.941406 5.570312 8.375 4.886719 10.066406 L 16.941406 10.175781 C 16.960938 10.046875 17.070312 9.746094 17.089844 9.617188 C 17.390625 8.140625 17.132812 6.835938 16.40625 5.71875 C 15.675781 4.5625 14.585938 3.984375 13.085938 3.964844 C 11.375 3.945312 9.769531 4.542969 8.203125 5.761719 M 19.511719 3.429688 C 20.515625 5.25 20.773438 7.304688 20.300781 9.660156 C 20.023438 11.09375 19.46875 12.421875 19.230469 12.894531 L 19.039062 13.234375 L 4.074219 13.109375 C 3.773438 14.691406 4.050781 16.082031 4.949219 17.238281 C 5.851562 18.351562 7.21875 18.929688 9.019531 18.929688 C 11.136719 18.953125 13.835938 18.160156 15.097656 17.519531 L 16.085938 17.046875 L 15.015625 20.625 C 13.066406 21.671875 10.710938 22.164062 7.90625 22.144531 C 5.1875 22.121094 3.195312 21.222656 1.867188 19.46875 C 0.539062 17.710938 0.132812 15.441406 0.625 12.679688 C 1.226562 9.296875 2.832031 6.425781 5.441406 4.113281 C 8.054688 1.800781 10.925781 0.625 14.050781 0.644531 C 16.683594 0.667969 18.460938 1.566406 19.46875 3.386719 " clip-rule="nonzero"/></clipPath><clipPath id="caad1aafd3"><rect x="0" width="21" y="0" height="23"/></clipPath></defs><g clip-path="url(#d25ed20f90)"><g clip-path="url(#1c003a02eb)"><g transform="matrix(1, 0, 0, 1, 0, 119)"><g clip-path="url(#ab0d4ba842)"><g clip-path="url(#ea9df292c0)"><g clip-path="url(#6fae11549a)"><path fill="#2e266d" d="M 0 0.464844 L 383.886719 0.464844 L 383.886719 152.359375 L 0 152.359375 Z M 0 0.464844 " fill-opacity="1" fill-rule="nonzero"/></g></g></g></g></g></g><g clip-path="url(#0a0111b039)"><g clip-path="url(#3c9908a0a8)"><g transform="matrix(1, 0, 0, 1, 10, 184)"><g clip-path="url(#3a9c99ea1f)"><g clip-path="url(#b4a1767888)"><g clip-path="url(#dc1968ab37)"><rect x="-94.48" width="552.96" fill="#009444" height="552.959979" y="-268.479997" fill-opacity="1"/></g></g></g></g></g></g><g clip-path="url(#e3aa304353)"><g clip-path="url(#2761f91e4f)"><g transform="matrix(1, 0, 0, 1, 83, 123)"><g clip-path="url(#26b80bba79)"><g clip-path="url(#e68349190b)"><g clip-path="url(#df24d6fcf0)"><rect x="-167.48" width="552.96" fill="#7cb380" height="552.959979" y="-207.479997" fill-opacity="1"/></g></g></g></g></g></g><g clip-path="url(#d3b0f04185)"><g clip-path="url(#0ec95c7344)"><g transform="matrix(1, 0, 0, 1, 198, 123)"><g clip-path="url(#5255b3153f)"><g clip-path="url(#ad3fa55ad6)"><g clip-path="url(#357ee7ad70)"><rect x="-282.48" width="552.96" fill="#009444" height="552.959979" y="-207.479997" fill-opacity="1"/></g></g></g></g></g></g><g clip-path="url(#1fa8b1c09d)"><g clip-path="url(#28147fa037)"><g transform="matrix(1, 0, 0, 1, 177, 178)"><g clip-path="url(#420fb7e985)"><g clip-path="url(#59e0eca296)"><g clip-path="url(#ee7484133e)"><rect x="-261.48" width="552.96" fill="#7cb380" height="552.959979" y="-262.479997" fill-opacity="1"/></g></g></g></g></g></g><g clip-path="url(#c1b8bc17f6)"><g clip-path="url(#f01c90666b)"><g transform="matrix(1, 0, 0, 1, 193, 141)"><g clip-path="url(#343a07ce65)"><g clip-path="url(#b8b5e67894)"><g clip-path="url(#b1bf0c6afa)"><rect x="-277.48" width="552.96" fill="#7cb380" height="552.959979" y="-225.479997" fill-opacity="1"/></g></g></g></g></g></g><g clip-path="url(#fd01849aa1)"><g clip-path="url(#cf24923acc)"><g transform="matrix(1, 0, 0, 1, 155, 220)"><g clip-path="url(#d7e454ead1)"><g clip-path="url(#1e93f56e07)"><g clip-path="url(#0dff40dc31)"><rect x="-239.48" width="552.96" fill="#231f20" height="552.959979" y="-304.479997" fill-opacity="1"/></g></g></g></g></g></g><g clip-path="url(#23d599192d)"><g clip-path="url(#7ddd7c7350)"><g transform="matrix(1, 0, 0, 1, 182, 230)"><g clip-path="url(#b9d15caf55)"><g clip-path="url(#9d92cd4293)"><g clip-path="url(#fd8e1a80da)"><rect x="-266.48" width="552.96" fill="#231f20" height="552.959979" y="-314.479997" fill-opacity="1"/></g></g></g></g></g></g><g clip-path="url(#e6edeaadac)"><g clip-path="url(#d91b345e52)"><g transform="matrix(1, 0, 0, 1, 204, 230)"><g clip-path="url(#7c11829a01)"><g clip-path="url(#6456938dcb)"><g clip-path="url(#33126a8154)"><rect x="-288.48" width="552.96" fill="#231f20" height="552.959979" y="-314.479997" fill-opacity="1"/></g></g></g></g></g></g><g clip-path="url(#0fdbefd9f4)"><g clip-path="url(#1c1174a744)"><g transform="matrix(1, 0, 0, 1, 218, 230)"><g clip-path="url(#75497dd52e)"><g clip-path="url(#f4693c4663)"><g clip-path="url(#eb9a9e430e)"><rect x="-302.48" width="552.96" fill="#231f20" height="552.959979" y="-314.479997" fill-opacity="1"/></g></g></g></g></g></g><g clip-path="url(#240b71cc55)"><g clip-path="url(#0d4e583f2f)"><g transform="matrix(1, 0, 0, 1, 241, 230)"><g clip-path="url(#03b8a8d17e)"><g clip-path="url(#1a6046cdb6)"><g clip-path="url(#4527724c11)"><rect x="-325.48" width="552.96" fill="#231f20" height="552.959979" y="-314.479997" fill-opacity="1"/></g></g></g></g></g></g><g clip-path="url(#60891bad5b)"><g clip-path="url(#dc8cc5833a)"><g transform="matrix(1, 0, 0, 1, 259, 231)"><g clip-path="url(#d0b3021be9)"><g clip-path="url(#d3af4b84e4)"><g clip-path="url(#4ff0c12e39)"><rect x="-343.48" width="552.96" fill="#231f20" height="552.959979" y="-315.479997" fill-opacity="1"/></g></g></g></g></g></g><g clip-path="url(#171be5d65a)"><g clip-path="url(#cda95cdfd7)"><g transform="matrix(1, 0, 0, 1, 285, 231)"><g clip-path="url(#c8734d417f)"><g clip-path="url(#01d9d6a086)"><g clip-path="url(#90b2f75673)"><rect x="-369.48" width="552.96" fill="#231f20" height="552.959979" y="-315.479997" fill-opacity="1"/></g></g></g></g></g></g><g clip-path="url(#ad4fc413fd)"><g clip-path="url(#31ab17e3d5)"><g transform="matrix(1, 0, 0, 1, 309, 231)"><g clip-path="url(#166ed3298a)"><g clip-path="url(#6e61e28403)"><g clip-path="url(#293836bc12)"><rect x="-393.48" width="552.96" fill="#231f20" height="552.959979" y="-315.479997" fill-opacity="1"/></g></g></g></g></g></g><g clip-path="url(#a35526e20d)"><g clip-path="url(#2ed21de234)"><g transform="matrix(1, 0, 0, 1, 328, 231)"><g clip-path="url(#caad1aafd3)"><g clip-path="url(#b71ce91c08)"><g clip-path="url(#e288f40914)"><rect x="-412.48" width="552.96" fill="#231f20" height="552.959979" y="-315.479997" fill-opacity="1"/></g></g></g></g></g></g></svg>